<mxfile host="app.diagrams.net" modified="2022-06-23T08:10:29.908Z" agent="5.0 (Macintosh; Intel Mac OS X 10_15_7) AppleWebKit/537.36 (KHTML, like Gecko) Chrome/102.0.0.0 Safari/537.36" version="20.0.1" etag="VkueXuU_fBg5G2CGKbV2" type="github">
  <diagram id="5ELRszYO8C1h0JJzNTCh" name="第 1 页">
    <mxGraphModel dx="946" dy="590" grid="1" gridSize="10" guides="1" tooltips="1" connect="1" arrows="1" fold="1" page="1" pageScale="1" pageWidth="3300" pageHeight="4681" background="none" math="0" shadow="0">
      <root>
        <mxCell id="0" />
        <mxCell id="1" parent="0" />
        <mxCell id="WSn1wI4g_E6U5KO4R4vN-63" value="数据流" style="swimlane;fontSize=10;fillColor=#eeeeee;swimlaneFillColor=#F0F0F0;strokeColor=#36393d;gradientColor=#ffffff;gradientDirection=east;" parent="1" vertex="1">
          <mxGeometry x="160" y="160" width="690" height="530" as="geometry">
            <mxRectangle x="160" y="160" width="80" height="23" as="alternateBounds" />
          </mxGeometry>
        </mxCell>
        <mxCell id="WSn1wI4g_E6U5KO4R4vN-22" style="edgeStyle=none;orthogonalLoop=1;jettySize=auto;html=1;strokeWidth=1.5;fontSize=8;rounded=0;noJump=0;fillColor=#e51400;strokeColor=#B20000;dashed=1;" parent="1" source="WSn1wI4g_E6U5KO4R4vN-1" target="WSn1wI4g_E6U5KO4R4vN-31" edge="1">
          <mxGeometry relative="1" as="geometry">
            <mxPoint x="420" y="450" as="targetPoint" />
          </mxGeometry>
        </mxCell>
        <mxCell id="WSn1wI4g_E6U5KO4R4vN-23" value="通过日志系统收集&lt;br style=&quot;font-size: 10px;&quot;&gt;&lt;span style=&quot;color: rgb(45, 45, 45); font-family: &amp;quot;Roboto Mono&amp;quot;, Consolas, Menlo, Courier, monospace; font-size: 10px; letter-spacing: -0.07px; text-align: start;&quot;&gt;user_biz&lt;/span&gt;" style="edgeLabel;html=1;align=center;verticalAlign=middle;resizable=0;points=[];fontSize=10;" parent="WSn1wI4g_E6U5KO4R4vN-22" vertex="1" connectable="0">
          <mxGeometry x="-0.35" y="-1" relative="1" as="geometry">
            <mxPoint as="offset" />
          </mxGeometry>
        </mxCell>
        <mxCell id="WSn1wI4g_E6U5KO4R4vN-50" style="edgeStyle=none;rounded=0;sketch=0;orthogonalLoop=1;jettySize=auto;html=1;exitX=0.13;exitY=0.77;exitDx=0;exitDy=0;exitPerimeter=0;shadow=0;fontSize=10;startFill=1;endFill=1;strokeColor=#97D077;strokeWidth=1.5;dashed=1;" parent="1" source="WSn1wI4g_E6U5KO4R4vN-1" target="WSn1wI4g_E6U5KO4R4vN-49" edge="1">
          <mxGeometry relative="1" as="geometry" />
        </mxCell>
        <mxCell id="WSn1wI4g_E6U5KO4R4vN-52" value="定位信息" style="edgeLabel;html=1;align=center;verticalAlign=middle;resizable=0;points=[];fontSize=10;" parent="WSn1wI4g_E6U5KO4R4vN-50" vertex="1" connectable="0">
          <mxGeometry x="-0.2511" y="-2" relative="1" as="geometry">
            <mxPoint as="offset" />
          </mxGeometry>
        </mxCell>
        <mxCell id="WSn1wI4g_E6U5KO4R4vN-1" value="用户系统" style="ellipse;shape=cloud;whiteSpace=wrap;html=1;fillColor=#7EA6E0;" parent="1" vertex="1">
          <mxGeometry x="360" y="310" width="120" height="80" as="geometry" />
        </mxCell>
        <mxCell id="WSn1wI4g_E6U5KO4R4vN-15" value="&lt;span style=&quot;font-size: 12px; background-color: rgb(248, 249, 250);&quot;&gt;端上上报用户信息&lt;/span&gt;" style="rounded=0;orthogonalLoop=1;jettySize=auto;html=1;entryX=0.07;entryY=0.4;entryDx=0;entryDy=0;entryPerimeter=0;startFill=1;endFill=1;" parent="1" source="WSn1wI4g_E6U5KO4R4vN-7" target="WSn1wI4g_E6U5KO4R4vN-1" edge="1">
          <mxGeometry relative="1" as="geometry" />
        </mxCell>
        <mxCell id="WSn1wI4g_E6U5KO4R4vN-7" value="" style="sketch=0;aspect=fixed;html=1;points=[];align=center;image;fontSize=12;image=img/lib/mscae/Devices_Groups.svg;fillColor=#CCCCCC;" parent="1" vertex="1">
          <mxGeometry x="180" y="380" width="50" height="50" as="geometry" />
        </mxCell>
        <mxCell id="WSn1wI4g_E6U5KO4R4vN-25" style="edgeStyle=none;rounded=1;orthogonalLoop=1;jettySize=auto;html=1;entryX=0.07;entryY=0.4;entryDx=0;entryDy=0;entryPerimeter=0;fillColor=#f8cecc;strokeColor=#b85450;dashed=1;strokeWidth=1.5;exitX=0.564;exitY=-0.002;exitDx=0;exitDy=0;exitPerimeter=0;" parent="1" source="WSn1wI4g_E6U5KO4R4vN-31" target="WSn1wI4g_E6U5KO4R4vN-24" edge="1">
          <mxGeometry relative="1" as="geometry">
            <mxPoint x="450" y="455.42056074766356" as="sourcePoint" />
          </mxGeometry>
        </mxCell>
        <mxCell id="WSn1wI4g_E6U5KO4R4vN-26" value="大数据处理" style="edgeLabel;html=1;align=center;verticalAlign=middle;resizable=0;points=[];fontSize=10;" parent="WSn1wI4g_E6U5KO4R4vN-25" vertex="1" connectable="0">
          <mxGeometry x="0.0893" y="-1" relative="1" as="geometry">
            <mxPoint as="offset" />
          </mxGeometry>
        </mxCell>
        <mxCell id="WSn1wI4g_E6U5KO4R4vN-28" style="edgeStyle=none;rounded=1;orthogonalLoop=1;jettySize=auto;html=1;entryX=0.487;entryY=-0.047;entryDx=0;entryDy=0;entryPerimeter=0;strokeColor=#b85450;fillColor=#f8cecc;dashed=1;strokeWidth=1.5;" parent="1" source="WSn1wI4g_E6U5KO4R4vN-24" target="WSn1wI4g_E6U5KO4R4vN-30" edge="1">
          <mxGeometry relative="1" as="geometry">
            <mxPoint x="600" y="450" as="targetPoint" />
          </mxGeometry>
        </mxCell>
        <mxCell id="WSn1wI4g_E6U5KO4R4vN-29" value="数据处理后落地" style="edgeLabel;html=1;align=center;verticalAlign=middle;resizable=0;points=[];" parent="WSn1wI4g_E6U5KO4R4vN-28" vertex="1" connectable="0">
          <mxGeometry x="-0.1667" y="2" relative="1" as="geometry">
            <mxPoint as="offset" />
          </mxGeometry>
        </mxCell>
        <mxCell id="WSn1wI4g_E6U5KO4R4vN-24" value="大数据服务" style="ellipse;shape=cloud;whiteSpace=wrap;html=1;fillColor=#7EA6E0;" parent="1" vertex="1">
          <mxGeometry x="540" y="310" width="120" height="80" as="geometry" />
        </mxCell>
        <mxCell id="WSn1wI4g_E6U5KO4R4vN-36" style="edgeStyle=none;rounded=1;orthogonalLoop=1;jettySize=auto;html=1;strokeColor=#b85450;fillColor=#f8cecc;dashed=1;strokeWidth=1.5;" parent="1" source="WSn1wI4g_E6U5KO4R4vN-30" target="WSn1wI4g_E6U5KO4R4vN-35" edge="1">
          <mxGeometry relative="1" as="geometry" />
        </mxCell>
        <mxCell id="WSn1wI4g_E6U5KO4R4vN-30" value="大数据mysql" style="sketch=0;aspect=fixed;html=1;points=[];align=center;image;fontSize=12;image=img/lib/mscae/Azure_Database_for_MySQL_servers.svg;fillColor=#CCCCCC;" parent="1" vertex="1">
          <mxGeometry x="569.6" y="460" width="60.8" height="80" as="geometry" />
        </mxCell>
        <mxCell id="WSn1wI4g_E6U5KO4R4vN-31" value="日志系统es" style="sketch=0;aspect=fixed;html=1;points=[];align=center;image;fontSize=12;image=img/lib/mscae/Elastic_Database_Pools.svg;fillColor=#CCCCCC;" parent="1" vertex="1">
          <mxGeometry x="440" y="460" width="80" height="80" as="geometry" />
        </mxCell>
        <mxCell id="WSn1wI4g_E6U5KO4R4vN-34" value="用户搜索ES" style="sketch=0;aspect=fixed;html=1;points=[];align=center;image;fontSize=12;image=img/lib/mscae/Elastic_Database_Pools.svg;fillColor=#CCCCCC;" parent="1" vertex="1">
          <mxGeometry x="380" y="580" width="80" height="80" as="geometry" />
        </mxCell>
        <mxCell id="WSn1wI4g_E6U5KO4R4vN-37" style="edgeStyle=none;rounded=1;orthogonalLoop=1;jettySize=auto;html=1;strokeColor=#b85450;fillColor=#f8cecc;dashed=1;strokeWidth=1.5;" parent="1" source="WSn1wI4g_E6U5KO4R4vN-35" target="WSn1wI4g_E6U5KO4R4vN-34" edge="1">
          <mxGeometry relative="1" as="geometry" />
        </mxCell>
        <mxCell id="WSn1wI4g_E6U5KO4R4vN-35" value="go-mysql-es同步插件" style="sketch=0;aspect=fixed;html=1;points=[];align=center;image;fontSize=12;image=img/lib/mscae/Cloud_Services_Classic.svg;fillColor=#CCCCCC;" parent="1" vertex="1">
          <mxGeometry x="569.6" y="594.5" width="60.71" height="51" as="geometry" />
        </mxCell>
        <mxCell id="WSn1wI4g_E6U5KO4R4vN-45" style="edgeStyle=none;rounded=0;sketch=0;orthogonalLoop=1;jettySize=auto;html=1;entryX=-0.002;entryY=0.482;entryDx=0;entryDy=0;entryPerimeter=0;shadow=0;fontSize=10;startFill=1;endFill=1;strokeWidth=1.5;" parent="1" source="WSn1wI4g_E6U5KO4R4vN-38" target="WSn1wI4g_E6U5KO4R4vN-34" edge="1">
          <mxGeometry relative="1" as="geometry" />
        </mxCell>
        <mxCell id="WSn1wI4g_E6U5KO4R4vN-38" value="用户搜索服务" style="ellipse;shape=cloud;whiteSpace=wrap;html=1;fillColor=#7EA6E0;" parent="1" vertex="1">
          <mxGeometry x="190" y="580" width="120" height="80" as="geometry" />
        </mxCell>
        <mxCell id="WSn1wI4g_E6U5KO4R4vN-40" value="通过定于mysql的binlog进行实时同步" style="whiteSpace=wrap;html=1;shape=mxgraph.basic.cloud_callout;dashed=1;" parent="1" vertex="1">
          <mxGeometry x="650" y="540" width="160" height="70" as="geometry" />
        </mxCell>
        <mxCell id="WSn1wI4g_E6U5KO4R4vN-51" style="edgeStyle=none;rounded=0;sketch=0;orthogonalLoop=1;jettySize=auto;html=1;entryX=0.412;entryY=0.901;entryDx=0;entryDy=0;entryPerimeter=0;shadow=0;fontSize=10;startFill=1;endFill=1;strokeColor=#97D077;strokeWidth=1.5;dashed=1;" parent="1" source="WSn1wI4g_E6U5KO4R4vN-49" target="WSn1wI4g_E6U5KO4R4vN-1" edge="1">
          <mxGeometry relative="1" as="geometry" />
        </mxCell>
        <mxCell id="WSn1wI4g_E6U5KO4R4vN-49" value="基础服务" style="sketch=0;aspect=fixed;html=1;points=[];align=center;image;fontSize=12;image=img/lib/mscae/Cloud_Service.svg;fillColor=#7EA6E0;" parent="1" vertex="1">
          <mxGeometry x="280" y="440" width="50" height="42" as="geometry" />
        </mxCell>
        <mxCell id="WSn1wI4g_E6U5KO4R4vN-60" value="这里数据处理为T+1" style="whiteSpace=wrap;html=1;shape=mxgraph.basic.cloud_callout;dashed=1;" parent="1" vertex="1">
          <mxGeometry x="650" y="260" width="160" height="70" as="geometry" />
        </mxCell>
        <mxCell id="WSn1wI4g_E6U5KO4R4vN-53" value="通过接口上报用户信息，比如定位，&lt;br&gt;设备等，其中定位需要调用基础&lt;br&gt;服务进行逆地址转换" style="whiteSpace=wrap;html=1;shape=mxgraph.basic.cloud_callout;fillColor=#FFFFFF;dashed=1;strokeColor=#FFFFFF;" parent="1" vertex="1">
          <mxGeometry x="430" y="200" width="220" height="120" as="geometry" />
        </mxCell>
        <mxCell id="WSn1wI4g_E6U5KO4R4vN-64" value="   企业微信排队引流" style="swimlane;fontSize=10;fillColor=#CCCCCC;gradientColor=#ffffff;gradientDirection=south;swimlaneFillColor=#F7F7F7;" parent="1" vertex="1">
          <mxGeometry x="140" y="830" width="760" height="470" as="geometry">
            <mxRectangle x="140" y="830" width="80" height="23" as="alternateBounds" />
          </mxGeometry>
        </mxCell>
        <mxCell id="WSn1wI4g_E6U5KO4R4vN-74" style="edgeStyle=none;rounded=0;sketch=0;orthogonalLoop=1;jettySize=auto;html=1;entryX=-0.09;entryY=0.577;entryDx=0;entryDy=0;entryPerimeter=0;shadow=0;dashed=1;fontSize=10;startFill=1;endFill=1;strokeColor=#97D077;strokeWidth=1.5;" parent="WSn1wI4g_E6U5KO4R4vN-64" source="WSn1wI4g_E6U5KO4R4vN-67" target="WSn1wI4g_E6U5KO4R4vN-73" edge="1">
          <mxGeometry relative="1" as="geometry" />
        </mxCell>
        <mxCell id="WSn1wI4g_E6U5KO4R4vN-77" value="查询客服码" style="edgeLabel;html=1;align=center;verticalAlign=middle;resizable=0;points=[];fontSize=10;" parent="WSn1wI4g_E6U5KO4R4vN-74" vertex="1" connectable="0">
          <mxGeometry x="-0.0038" y="1" relative="1" as="geometry">
            <mxPoint as="offset" />
          </mxGeometry>
        </mxCell>
        <mxCell id="WSn1wI4g_E6U5KO4R4vN-78" style="edgeStyle=none;rounded=0;sketch=0;orthogonalLoop=1;jettySize=auto;html=1;shadow=0;dashed=1;fontSize=10;startFill=1;endFill=1;strokeColor=#97D077;strokeWidth=1.5;" parent="WSn1wI4g_E6U5KO4R4vN-64" source="WSn1wI4g_E6U5KO4R4vN-67" target="WSn1wI4g_E6U5KO4R4vN-71" edge="1">
          <mxGeometry relative="1" as="geometry" />
        </mxCell>
        <mxCell id="WSn1wI4g_E6U5KO4R4vN-79" value="添加客服" style="edgeLabel;html=1;align=center;verticalAlign=middle;resizable=0;points=[];fontSize=10;" parent="WSn1wI4g_E6U5KO4R4vN-78" vertex="1" connectable="0">
          <mxGeometry x="0.157" y="-1" relative="1" as="geometry">
            <mxPoint as="offset" />
          </mxGeometry>
        </mxCell>
        <mxCell id="WSn1wI4g_E6U5KO4R4vN-67" value="" style="sketch=0;aspect=fixed;html=1;points=[];align=center;image;fontSize=12;image=img/lib/mscae/Devices_Groups.svg;fillColor=#CCCCCC;gradientColor=#ffffff;gradientDirection=south;" parent="WSn1wI4g_E6U5KO4R4vN-64" vertex="1">
          <mxGeometry x="75" y="100" width="50" height="50" as="geometry" />
        </mxCell>
        <mxCell id="WSn1wI4g_E6U5KO4R4vN-69" value="排队服务" style="sketch=0;aspect=fixed;html=1;points=[];align=center;image;fontSize=12;image=img/lib/mscae/Cloud_Services_Classic.svg;fillColor=#CCCCCC;gradientColor=#ffffff;gradientDirection=south;" parent="WSn1wI4g_E6U5KO4R4vN-64" vertex="1">
          <mxGeometry x="320" y="30" width="50" height="42" as="geometry" />
        </mxCell>
        <mxCell id="WSn1wI4g_E6U5KO4R4vN-70" value="企业微信" style="sketch=0;aspect=fixed;html=1;points=[];align=center;image;fontSize=12;image=img/lib/mscae/Cloud_Services_Classic.svg;fillColor=#CCCCCC;gradientColor=#ffffff;gradientDirection=south;" parent="WSn1wI4g_E6U5KO4R4vN-64" vertex="1">
          <mxGeometry x="350" y="200" width="50" height="42" as="geometry" />
        </mxCell>
        <mxCell id="WSn1wI4g_E6U5KO4R4vN-80" value="回调事件" style="edgeStyle=none;rounded=0;sketch=0;orthogonalLoop=1;jettySize=auto;html=1;shadow=0;dashed=1;fontSize=10;startFill=1;endFill=1;strokeColor=#97D077;strokeWidth=1.5;" parent="WSn1wI4g_E6U5KO4R4vN-64" source="WSn1wI4g_E6U5KO4R4vN-71" target="WSn1wI4g_E6U5KO4R4vN-70" edge="1">
          <mxGeometry relative="1" as="geometry" />
        </mxCell>
        <mxCell id="WSn1wI4g_E6U5KO4R4vN-71" value="企业微信开放平台" style="sketch=0;aspect=fixed;html=1;points=[];align=center;image;fontSize=12;image=img/lib/mscae/Cloud_Service.svg;fillColor=#CCCCCC;gradientColor=#ffffff;gradientDirection=south;" parent="WSn1wI4g_E6U5KO4R4vN-64" vertex="1">
          <mxGeometry x="210" y="200" width="50" height="42" as="geometry" />
        </mxCell>
        <mxCell id="WSn1wI4g_E6U5KO4R4vN-73" value="聚合服务" style="sketch=0;aspect=fixed;html=1;points=[];align=center;image;fontSize=12;image=img/lib/mscae/Cloud_Services_Classic.svg;fillColor=#CCCCCC;gradientColor=#ffffff;gradientDirection=south;" parent="WSn1wI4g_E6U5KO4R4vN-64" vertex="1">
          <mxGeometry x="210" y="100" width="50" height="42" as="geometry" />
        </mxCell>
        <mxCell id="WSn1wI4g_E6U5KO4R4vN-66" value="" style="verticalLabelPosition=bottom;verticalAlign=top;html=1;shadow=0;dashed=0;strokeWidth=1;shape=mxgraph.ios.iPageControl;fillColor=#666666;strokeColor=#cccccc;sketch=0;fontSize=10;" parent="1" vertex="1">
          <mxGeometry x="490" y="370" width="50" height="5" as="geometry" />
        </mxCell>
      </root>
    </mxGraphModel>
  </diagram>
</mxfile>
